<svg width="27" height="28" viewBox="0 0 27 28" fill="none" xmlns="http://www.w3.org/2000/svg">
<g id="bank">
<path id="Icon" d="M6.16043 10.3463V19.5244M10.8951 10.3463V19.5244M16.1557 10.3463V19.5244M20.8904 10.3463V19.5244M4.05615 21.36L4.05615 22.2779C4.05615 22.9204 4.05615 23.2417 4.17083 23.4871C4.2717 23.7029 4.43266 23.8784 4.63063 23.9884C4.85569 24.1135 5.15032 24.1135 5.73957 24.1135H21.3112C21.9005 24.1135 22.1951 24.1135 22.4202 23.9884C22.6181 23.8784 22.7791 23.7029 22.88 23.4871C22.9947 23.2417 22.9947 22.9204 22.9947 22.2779V21.36C22.9947 20.7175 22.9947 20.3963 22.88 20.1508C22.7791 19.935 22.6181 19.7595 22.4202 19.6495C22.1951 19.5244 21.9005 19.5244 21.3112 19.5244H5.73957C5.15032 19.5244 4.8557 19.5244 4.63063 19.6495C4.43266 19.7595 4.2717 19.935 4.17083 20.1508C4.05615 20.3963 4.05615 20.7175 4.05615 21.36ZM13.1602 3.55123L5.37439 5.43784C4.90402 5.55181 4.66883 5.6088 4.49328 5.74671C4.33843 5.86836 4.21684 6.03363 4.14153 6.22485C4.05615 6.44163 4.05615 6.70434 4.05615 7.22975L4.05615 8.5107C4.05615 9.15322 4.05615 9.47449 4.17083 9.7199C4.2717 9.93577 4.43266 10.1113 4.63063 10.2213C4.85569 10.3463 5.15032 10.3463 5.73957 10.3463H21.3112C21.9005 10.3463 22.1951 10.3463 22.4202 10.2213C22.6181 10.1113 22.7791 9.93577 22.88 9.7199C22.9947 9.47449 22.9947 9.15322 22.9947 8.5107V7.22975C22.9947 6.70434 22.9947 6.44164 22.9093 6.22485C22.834 6.03364 22.7124 5.86836 22.5575 5.74671C22.382 5.6088 22.1468 5.55181 21.6764 5.43784L13.8906 3.55123C13.7543 3.5182 13.6862 3.50169 13.6173 3.49511C13.5562 3.48926 13.4946 3.48926 13.4335 3.49511C13.3646 3.50169 13.2965 3.5182 13.1602 3.55123Z" stroke="black" stroke-width="2" stroke-linecap="round" stroke-linejoin="round"/>
</g>
</svg>
