<svg width="30" height="30" viewBox="0 0 30 30" fill="none" xmlns="http://www.w3.org/2000/svg">
<g id="Document">
<g id="Iconly/Bold/Document">
<g id="Document_2">
<path id="Vector" d="M20.3831 2.84359C24.1506 2.84359 26.2484 5.01457 26.2484 8.7345V21.3335C26.2484 25.1144 24.1506 27.2366 20.3831 27.2366H10.1613C6.45352 27.2366 4.29474 25.1144 4.29474 21.3335V8.7345C4.29474 5.01457 6.45352 2.84359 10.1613 2.84359H20.3831ZM10.4906 19.6016C10.1247 19.565 9.77097 19.7357 9.57582 20.0529C9.38068 20.3578 9.38068 20.7602 9.57582 21.0774C9.77097 21.3823 10.1247 21.5652 10.4906 21.5164H20.0526C20.5393 21.4676 20.9064 21.0517 20.9064 20.5651C20.9064 20.065 20.5393 19.6504 20.0526 19.6016H10.4906ZM20.0526 14.0388H10.4906C9.96489 14.0388 9.53923 14.4669 9.53923 14.9913C9.53923 15.5158 9.96489 15.9426 10.4906 15.9426H20.0526C20.5771 15.9426 21.0039 15.5158 21.0039 14.9913C21.0039 14.4669 20.5771 14.0388 20.0526 14.0388ZM14.1361 8.51496H10.4906V8.52716C9.96489 8.52716 9.53923 8.95404 9.53923 9.47849C9.53923 10.0029 9.96489 10.4298 10.4906 10.4298H14.1361C14.6618 10.4298 15.0886 10.0029 15.0886 9.46507C15.0886 8.94184 14.6618 8.51496 14.1361 8.51496Z" fill="#5D7285"/>
</g>
</g>
</g>
</svg>
