<svg width="78" height="23" viewBox="0 0 78 23" fill="none" xmlns="http://www.w3.org/2000/svg">
<rect width="78" height="23" rx="11.5" fill="#D0FCE3"/>
<path d="M23.9531 6.05664L24.75 6.19727C24.625 6.91992 24.4785 7.60742 24.3105 8.25977H26.8359V9.10352H26.2734C26.1094 11.3418 25.7324 13.1133 25.1426 14.418C25.5918 15.2891 26.1797 16.0332 26.9062 16.6504C26.7344 16.9551 26.5703 17.2559 26.4141 17.5527C25.7227 16.8848 25.1504 16.127 24.6973 15.2793C24.2285 16.0957 23.625 16.8809 22.8867 17.6348C22.7305 17.4082 22.5391 17.1621 22.3125 16.8965C23.1641 16.0918 23.8203 15.252 24.2812 14.377C23.8438 13.291 23.5781 12.0742 23.4844 10.7266C23.3594 11.0273 23.2266 11.3184 23.0859 11.5996C22.9297 11.3965 22.7422 11.1934 22.5234 10.9902C23.2109 9.6543 23.6875 8.00977 23.9531 6.05664ZM18.3984 9.99414V7.12305H19.1484V9.19727H20.1094V6.2207H20.8828V9.19727H21.8438V7.11133H22.5938V10.3691H21.8438V9.99414H18.3984ZM21.1055 13.7324H19.5586V14.2715C19.5586 15.6777 19.1641 16.6777 18.375 17.2715C18.2422 17.0527 18.0664 16.8027 17.8477 16.5215C18.4648 16.1152 18.7734 15.334 18.7734 14.1777V12.9355H21.8906V14.9746C22.25 14.6621 22.6602 14.2949 23.1211 13.873C23.1914 14.2168 23.2578 14.5176 23.3203 14.7754C22.8906 15.1191 22.4023 15.541 21.8555 16.041C21.6836 16.2051 21.5273 16.3613 21.3867 16.5098L20.7891 15.7598C21 15.5488 21.1055 15.2676 21.1055 14.916V13.7324ZM15.1523 12.9473C16.0352 11.916 16.7852 10.7012 17.4023 9.30273L18.1758 9.66602C17.8867 10.2754 17.5859 10.8457 17.2734 11.377V17.5293H16.4766V12.6074C16.1484 13.0723 15.8086 13.498 15.457 13.8848C15.3633 13.5723 15.2617 13.2598 15.1523 12.9473ZM25.4766 9.10352H24.0703L24.0352 9.21484C24.0469 10.8164 24.2715 12.2188 24.709 13.4219C25.0527 12.4531 25.3086 11.0137 25.4766 9.10352ZM15.2109 9.17383C16.1953 8.17383 16.9336 7.1543 17.4258 6.11523L18.1523 6.52539C17.4648 7.8457 16.5781 9.0332 15.4922 10.0879C15.4062 9.7832 15.3125 9.47852 15.2109 9.17383ZM18.6328 11.0371H22.3594V11.8574H18.6328V11.0371ZM35.9531 6.05664L36.75 6.19727C36.625 6.91992 36.4785 7.60742 36.3105 8.25977H38.8359V9.10352H38.2734C38.1094 11.3418 37.7324 13.1133 37.1426 14.418C37.5918 15.2891 38.1797 16.0332 38.9062 16.6504C38.7344 16.9551 38.5703 17.2559 38.4141 17.5527C37.7227 16.8848 37.1504 16.127 36.6973 15.2793C36.2285 16.0957 35.625 16.8809 34.8867 17.6348C34.7305 17.4082 34.5391 17.1621 34.3125 16.8965C35.1641 16.0918 35.8203 15.252 36.2812 14.377C35.8438 13.291 35.5781 12.0742 35.4844 10.7266C35.3594 11.0273 35.2266 11.3184 35.0859 11.5996C34.9297 11.3965 34.7422 11.1934 34.5234 10.9902C35.2109 9.6543 35.6875 8.00977 35.9531 6.05664ZM30.3984 9.99414V7.12305H31.1484V9.19727H32.1094V6.2207H32.8828V9.19727H33.8438V7.11133H34.5938V10.3691H33.8438V9.99414H30.3984ZM33.1055 13.7324H31.5586V14.2715C31.5586 15.6777 31.1641 16.6777 30.375 17.2715C30.2422 17.0527 30.0664 16.8027 29.8477 16.5215C30.4648 16.1152 30.7734 15.334 30.7734 14.1777V12.9355H33.8906V14.9746C34.25 14.6621 34.6602 14.2949 35.1211 13.873C35.1914 14.2168 35.2578 14.5176 35.3203 14.7754C34.8906 15.1191 34.4023 15.541 33.8555 16.041C33.6836 16.2051 33.5273 16.3613 33.3867 16.5098L32.7891 15.7598C33 15.5488 33.1055 15.2676 33.1055 14.916V13.7324ZM27.1523 12.9473C28.0352 11.916 28.7852 10.7012 29.4023 9.30273L30.1758 9.66602C29.8867 10.2754 29.5859 10.8457 29.2734 11.377V17.5293H28.4766V12.6074C28.1484 13.0723 27.8086 13.498 27.457 13.8848C27.3633 13.5723 27.2617 13.2598 27.1523 12.9473ZM37.4766 9.10352H36.0703L36.0352 9.21484C36.0469 10.8164 36.2715 12.2188 36.709 13.4219C37.0527 12.4531 37.3086 11.0137 37.4766 9.10352ZM27.2109 9.17383C28.1953 8.17383 28.9336 7.1543 29.4258 6.11523L30.1523 6.52539C29.4648 7.8457 28.5781 9.0332 27.4922 10.0879C27.4062 9.7832 27.3125 9.47852 27.2109 9.17383ZM30.6328 11.0371H34.3594V11.8574H30.6328V11.0371ZM42.1992 8.2832H43.1719V15.1504C43.1719 15.8613 43.4883 16.2168 44.1211 16.2168H46.6406C47.3125 16.2168 47.6914 15.9355 47.7773 15.373C47.8633 14.8809 47.9375 14.291 48 13.6035C48.3281 13.7363 48.6641 13.8613 49.0078 13.9785C48.8906 14.7988 48.7812 15.4121 48.6797 15.8184C48.4688 16.6934 47.8516 17.1309 46.8281 17.1309H43.8867C42.7617 17.1309 42.1992 16.5449 42.1992 15.373V8.2832ZM48.8086 9.17383C49.4727 10.4316 50.1641 11.8613 50.8828 13.4629L49.9102 13.9434C49.3086 12.4277 48.6484 10.9746 47.9297 9.58398L48.8086 9.17383ZM40.4766 9.53711L41.4141 9.79492C41.0547 11.459 40.625 13.0762 40.125 14.6465L39.1875 14.2832C39.7031 12.8145 40.1328 11.2324 40.4766 9.53711ZM44.7773 5.92773C45.5195 7.16211 46.1484 8.27539 46.6641 9.26758C46.2969 9.45508 45.9844 9.62305 45.7266 9.77148C45.1797 8.56055 44.5898 7.41992 43.957 6.34961L44.7773 5.92773ZM56.5781 8.45898H58.3242C58.3359 7.67383 58.3398 6.86914 58.3359 6.04492H59.2969C59.293 6.86133 59.2832 7.66602 59.2676 8.45898H62.4258C62.3711 11.4121 62.293 13.791 62.1914 15.5957C62.1055 16.6973 61.5938 17.2559 60.6562 17.2715C60.1719 17.2715 59.6445 17.2598 59.0742 17.2363C59.0195 16.9082 58.957 16.5645 58.8867 16.2051C59.4258 16.2754 59.918 16.3145 60.3633 16.3223C60.9414 16.3223 61.2422 15.998 61.2656 15.3496C61.3828 13.4121 61.4531 11.4121 61.4766 9.34961H59.25C59.2422 9.68555 59.2344 10.0176 59.2266 10.3457C59.1875 13.4238 58.2578 15.8535 56.4375 17.6348C56.2188 17.3691 55.9844 17.1035 55.7344 16.8379C57.3672 15.3848 58.2188 13.2129 58.2891 10.3223C58.2969 10.002 58.3047 9.67773 58.3125 9.34961H56.5781V8.45898ZM55.3828 12.502C55.875 13.5645 56.3281 14.6191 56.7422 15.666C56.3984 15.8145 56.1055 15.9434 55.8633 16.0527C55.8086 15.9043 55.7539 15.7559 55.6992 15.6074C54.2109 15.748 52.8555 15.8887 51.6328 16.0293L51.2227 15.0801C51.5664 14.8848 51.8438 14.5684 52.0547 14.1309C52.4375 13.3613 52.8359 12.3848 53.25 11.2012H51.2695V10.334H56.9297V11.2012H54.2344C53.5664 12.8652 52.9883 14.1582 52.5 15.0801C53.3984 15.0137 54.3652 14.9258 55.4004 14.8164C55.1387 14.1523 54.8633 13.502 54.5742 12.8652L55.3828 12.502ZM51.7617 7.04102H56.4609V7.9082H51.7617V7.04102Z" fill="#1F9254"/>
</svg>
