<svg width="78" height="23" viewBox="0 0 78 23" fill="none" xmlns="http://www.w3.org/2000/svg">
<rect width="78" height="23" rx="11.5" fill="#F9D3AD"/>
<path d="M24.8438 15.127L25.6289 14.752C26.082 15.5488 26.5156 16.3652 26.9297 17.2012L26.0508 17.6465C25.9258 17.3496 25.7969 17.0605 25.6641 16.7793C23.2422 16.9434 21.0742 17.0918 19.1602 17.2246L19.0312 16.252C20.2031 16.2051 21.3398 16.1582 22.4414 16.1113V14.377H20.4258V14.834H19.5586V11.0957H22.4414V9.81836H20.8945V10.2871H20.0273V6.67773H25.7461V10.2871H24.8789V9.81836H23.332V11.0957H26.2266V14.377H23.332V16.0762C23.9961 16.0527 24.6484 16.0254 25.2891 15.9941C25.1406 15.6973 24.9922 15.4082 24.8438 15.127ZM15.7969 9.50195H18.0938V7.5332H15.4453V6.73633H18.9609V10.8027H18.0938V10.2988H16.5586L16.3477 12.1152H18.8555C18.7773 13.7793 18.707 14.9941 18.6445 15.7598C18.5742 16.8223 18.0469 17.3535 17.0625 17.3535C16.7109 17.3535 16.2891 17.3496 15.7969 17.3418C15.75 17.0527 15.6875 16.7402 15.6094 16.4043C16.1172 16.4434 16.5508 16.4629 16.9102 16.4629C17.4414 16.4629 17.7266 16.1895 17.7656 15.6426C17.8281 14.8457 17.8828 13.9355 17.9297 12.9121H15.4219L15.7969 9.50195ZM24.8789 7.47461H20.8945V9.02148H24.8789V7.47461ZM25.3594 13.5801V11.8926H23.332V13.5801H25.3594ZM20.4258 13.5801H22.4414V11.8926H20.4258V13.5801ZM28.9219 11.248L29.4609 10.627C30.0508 11.0176 30.582 11.3789 31.0547 11.7109C31.6992 11.1211 32.2266 10.4512 32.6367 9.70117H29.543C29 10.459 28.3867 11.1465 27.7031 11.7637C27.5391 11.5527 27.3398 11.3379 27.1055 11.1191C28.3125 10.1152 29.2539 8.90039 29.9297 7.47461H27.6211V6.67773H33.8438V7.47461H30.8555C30.6133 7.98242 30.3496 8.4668 30.0645 8.92773H33.5273V9.72461C32.5195 11.8887 30.6797 13.502 28.0078 14.5645C27.8359 14.2676 27.6562 14.0098 27.4688 13.791C28.5938 13.3809 29.5645 12.8711 30.3809 12.2617C29.9355 11.9258 29.4492 11.5879 28.9219 11.248ZM37.9453 6.12695V12.4434C37.9453 13.4824 37.4883 14.0059 36.5742 14.0137C36.1445 14.0215 35.6484 14.0215 35.0859 14.0137C35.0625 13.748 35.0156 13.4238 34.9453 13.041C35.4297 13.0801 35.9062 13.0996 36.375 13.0996C36.8359 13.0996 37.0664 12.8262 37.0664 12.2793V6.12695H37.9453ZM34.5117 7.04102H35.3672V11.998H34.5117V7.04102ZM28.6641 14.541L29.5078 14.8457C29.0859 15.877 28.6602 16.7715 28.2305 17.5293C27.9648 17.3809 27.6797 17.2402 27.375 17.1074C27.8594 16.3027 28.2891 15.4473 28.6641 14.541ZM36.2461 14.7637L36.9961 14.3066C37.5273 15.1191 38.0312 15.9316 38.5078 16.7441L37.6758 17.248C37.2617 16.459 36.7852 15.6309 36.2461 14.7637ZM30.5039 14.916L31.3008 14.5293C31.6445 15.1855 32.0273 15.9863 32.4492 16.9316L31.5703 17.3418C31.2266 16.4902 30.8711 15.6816 30.5039 14.916ZM33.4219 14.8223L34.207 14.459C34.582 15.1543 34.9727 15.9395 35.3789 16.8145L34.5117 17.2129C34.1211 16.252 33.7578 15.4551 33.4219 14.8223ZM42.1992 8.2832H43.1719V15.1504C43.1719 15.8613 43.4883 16.2168 44.1211 16.2168H46.6406C47.3125 16.2168 47.6914 15.9355 47.7773 15.373C47.8633 14.8809 47.9375 14.291 48 13.6035C48.3281 13.7363 48.6641 13.8613 49.0078 13.9785C48.8906 14.7988 48.7812 15.4121 48.6797 15.8184C48.4688 16.6934 47.8516 17.1309 46.8281 17.1309H43.8867C42.7617 17.1309 42.1992 16.5449 42.1992 15.373V8.2832ZM48.8086 9.17383C49.4727 10.4316 50.1641 11.8613 50.8828 13.4629L49.9102 13.9434C49.3086 12.4277 48.6484 10.9746 47.9297 9.58398L48.8086 9.17383ZM40.4766 9.53711L41.4141 9.79492C41.0547 11.459 40.625 13.0762 40.125 14.6465L39.1875 14.2832C39.7031 12.8145 40.1328 11.2324 40.4766 9.53711ZM44.7773 5.92773C45.5195 7.16211 46.1484 8.27539 46.6641 9.26758C46.2969 9.45508 45.9844 9.62305 45.7266 9.77148C45.1797 8.56055 44.5898 7.41992 43.957 6.34961L44.7773 5.92773ZM56.5781 8.45898H58.3242C58.3359 7.67383 58.3398 6.86914 58.3359 6.04492H59.2969C59.293 6.86133 59.2832 7.66602 59.2676 8.45898H62.4258C62.3711 11.4121 62.293 13.791 62.1914 15.5957C62.1055 16.6973 61.5938 17.2559 60.6562 17.2715C60.1719 17.2715 59.6445 17.2598 59.0742 17.2363C59.0195 16.9082 58.957 16.5645 58.8867 16.2051C59.4258 16.2754 59.918 16.3145 60.3633 16.3223C60.9414 16.3223 61.2422 15.998 61.2656 15.3496C61.3828 13.4121 61.4531 11.4121 61.4766 9.34961H59.25C59.2422 9.68555 59.2344 10.0176 59.2266 10.3457C59.1875 13.4238 58.2578 15.8535 56.4375 17.6348C56.2188 17.3691 55.9844 17.1035 55.7344 16.8379C57.3672 15.3848 58.2188 13.2129 58.2891 10.3223C58.2969 10.002 58.3047 9.67773 58.3125 9.34961H56.5781V8.45898ZM55.3828 12.502C55.875 13.5645 56.3281 14.6191 56.7422 15.666C56.3984 15.8145 56.1055 15.9434 55.8633 16.0527C55.8086 15.9043 55.7539 15.7559 55.6992 15.6074C54.2109 15.748 52.8555 15.8887 51.6328 16.0293L51.2227 15.0801C51.5664 14.8848 51.8438 14.5684 52.0547 14.1309C52.4375 13.3613 52.8359 12.3848 53.25 11.2012H51.2695V10.334H56.9297V11.2012H54.2344C53.5664 12.8652 52.9883 14.1582 52.5 15.0801C53.3984 15.0137 54.3652 14.9258 55.4004 14.8164C55.1387 14.1523 54.8633 13.502 54.5742 12.8652L55.3828 12.502ZM51.7617 7.04102H56.4609V7.9082H51.7617V7.04102Z" fill="#F39639"/>
</svg>
