<svg width="78" height="23" viewBox="0 0 78 23" fill="none" xmlns="http://www.w3.org/2000/svg">
<rect width="78" height="23" rx="11.5" fill="#FBE7E8"/>
<path d="M21.082 15.7715C21.0586 16.0605 21.0586 16.3535 21.082 16.6504C20.3477 16.8613 19.7383 17.0566 19.2539 17.2363C18.957 17.3457 18.6719 17.4746 18.3984 17.623L17.9414 16.8613C18.1367 16.7051 18.2344 16.4238 18.2344 16.0176V14.541H17.1738C17.002 15.752 16.5391 16.7441 15.7852 17.5176C15.5977 17.2832 15.3828 17.0488 15.1406 16.8145C15.9844 16.041 16.4062 14.9043 16.4062 13.4043V11.166H26.2969V11.8223H17.25V13.8848H26.3906V14.541H21.2344C21.6992 14.9863 22.2402 15.3555 22.8574 15.6484C23.5488 15.3086 24.1719 14.9746 24.7266 14.6465L25.1953 15.291C24.7148 15.5371 24.2188 15.7715 23.707 15.9941C24.6055 16.2949 25.6367 16.4668 26.8008 16.5098C26.6133 16.7598 26.4258 17.0605 26.2383 17.4121C23.5078 17.1309 21.5254 16.1738 20.291 14.541H19.0781V16.416C19.6328 16.2441 20.3008 16.0293 21.082 15.7715ZM15.6094 7.80273H20.5664V7.06445H16.3125V6.43164H25.6875V7.06445H21.4336V7.80273H26.3906V9.90039H25.5469V8.43555H21.4336V10.5566H20.5664V8.43555H16.4531V9.87695H15.6094V7.80273ZM17.7422 12.5371H25.4766V13.1699H17.7422V12.5371ZM17.0156 10.0059H20.0156V10.5684H17.0156V10.0059ZM21.9844 8.93945H24.9844V9.50195H21.9844V8.93945ZM21.9844 10.0059H24.9844V10.5684H21.9844V10.0059ZM17.0156 8.93945H20.0156V9.50195H17.0156V8.93945ZM34.6875 13.4512C35.1406 13.0293 35.5391 12.584 35.8828 12.1152C35.5078 11.1387 35.3008 9.8457 35.2617 8.23633H31.7227V9.24414C31.7227 10.4941 31.6445 11.4238 31.4883 12.0332C31.3086 12.7754 31 13.4316 30.5625 14.002C30.3516 13.6738 30.1523 13.4043 29.9648 13.1934C30.3477 12.7637 30.6055 12.2715 30.7383 11.7168C30.8633 11.2168 30.9258 10.3926 30.9258 9.24414V7.50977H35.2383C35.2227 7.06445 35.2148 6.58398 35.2148 6.06836H36.0117C36.0117 6.5918 36.0156 7.07227 36.0234 7.50977H38.5312V8.23633H36.0469C36.0625 9.43164 36.1914 10.4355 36.4336 11.248C36.8477 10.498 37.1484 9.68555 37.3359 8.81055L38.1328 9.08008C37.8203 10.2207 37.375 11.252 36.7969 12.1738C36.9062 12.3848 37.0312 12.5762 37.1719 12.748C37.3203 12.8965 37.4414 12.9707 37.5352 12.9707C37.6211 12.9707 37.6992 12.8535 37.7695 12.6191C37.9023 12.1895 38.0078 11.7441 38.0859 11.2832C38.25 11.3926 38.5039 11.5176 38.8477 11.6582C38.7148 12.2988 38.5703 12.834 38.4141 13.2637C38.2578 13.7012 38.0195 13.9199 37.6992 13.9199C37.3398 13.9199 37.0078 13.7715 36.7031 13.4746C36.5469 13.3184 36.4062 13.1387 36.2812 12.9355C36.0078 13.2949 35.7109 13.6348 35.3906 13.9551C35.1484 13.7598 34.9141 13.5918 34.6875 13.4512ZM27.1641 12.3379C27.6484 12.1426 28.1211 11.9434 28.582 11.7402V9.0332H27.2461V8.23633H28.582V6.06836H29.3906V8.23633H30.5977V9.0332H29.3906V11.3652C29.7422 11.2012 30.082 11.0293 30.4102 10.8496C30.4336 11.2168 30.4648 11.5176 30.5039 11.752C30.2617 11.8691 29.8906 12.0566 29.3906 12.3145V16.3457C29.3906 17.1035 28.9961 17.4824 28.207 17.4824H27.293C27.2695 17.1699 27.2266 16.8574 27.1641 16.5449C27.5156 16.5762 27.8281 16.5918 28.1016 16.5918C28.4219 16.5918 28.582 16.4551 28.582 16.1816V12.7129C28.2148 12.9004 27.7812 13.1191 27.2812 13.3691L27.1641 12.3379ZM32.1094 10.5801H34.8984V13.0059H32.8359V13.3809H32.1094V10.5801ZM32.3203 14.1543H33.1406V15.7832C33.1406 16.2598 33.3555 16.498 33.7852 16.498H35.0273C35.5273 16.498 35.8164 16.3066 35.8945 15.9238C35.9648 15.6191 36.0391 15.166 36.1172 14.5645C36.4297 14.7129 36.7031 14.8301 36.9375 14.916C36.8438 15.4551 36.7422 15.9004 36.6328 16.252C36.4609 16.9629 35.9922 17.3184 35.2266 17.3184H33.6328C32.7578 17.3184 32.3203 16.8418 32.3203 15.8887V14.1543ZM31.2773 14.166L32.0156 14.4707C31.6797 15.3457 31.2773 16.1738 30.8086 16.9551C30.6289 16.8379 30.3906 16.6934 30.0938 16.5215C30.5625 15.7715 30.957 14.9863 31.2773 14.166ZM32.0625 9.08008H34.9453V9.7832H32.0625V9.08008ZM37.0078 14.5762L37.6758 14.2363C38.1289 14.9707 38.5117 15.6621 38.8242 16.3105L38.0273 16.7207C37.7617 16.0723 37.4219 15.3574 37.0078 14.5762ZM33.5156 14.002L34.1367 13.5332C34.668 14.1035 35.1172 14.6152 35.4844 15.0684L34.7578 15.6191C34.3906 15.0879 33.9766 14.5488 33.5156 14.002ZM34.1719 12.3262V11.2598H32.8359V12.3262H34.1719ZM36.5859 6.52539L37.1016 5.98633C37.4219 6.19727 37.8086 6.50195 38.2617 6.90039L37.6875 7.49805C37.2578 7.06836 36.8906 6.74414 36.5859 6.52539ZM42.1992 8.2832H43.1719V15.1504C43.1719 15.8613 43.4883 16.2168 44.1211 16.2168H46.6406C47.3125 16.2168 47.6914 15.9355 47.7773 15.373C47.8633 14.8809 47.9375 14.291 48 13.6035C48.3281 13.7363 48.6641 13.8613 49.0078 13.9785C48.8906 14.7988 48.7812 15.4121 48.6797 15.8184C48.4688 16.6934 47.8516 17.1309 46.8281 17.1309H43.8867C42.7617 17.1309 42.1992 16.5449 42.1992 15.373V8.2832ZM48.8086 9.17383C49.4727 10.4316 50.1641 11.8613 50.8828 13.4629L49.9102 13.9434C49.3086 12.4277 48.6484 10.9746 47.9297 9.58398L48.8086 9.17383ZM40.4766 9.53711L41.4141 9.79492C41.0547 11.459 40.625 13.0762 40.125 14.6465L39.1875 14.2832C39.7031 12.8145 40.1328 11.2324 40.4766 9.53711ZM44.7773 5.92773C45.5195 7.16211 46.1484 8.27539 46.6641 9.26758C46.2969 9.45508 45.9844 9.62305 45.7266 9.77148C45.1797 8.56055 44.5898 7.41992 43.957 6.34961L44.7773 5.92773ZM56.5781 8.45898H58.3242C58.3359 7.67383 58.3398 6.86914 58.3359 6.04492H59.2969C59.293 6.86133 59.2832 7.66602 59.2676 8.45898H62.4258C62.3711 11.4121 62.293 13.791 62.1914 15.5957C62.1055 16.6973 61.5938 17.2559 60.6562 17.2715C60.1719 17.2715 59.6445 17.2598 59.0742 17.2363C59.0195 16.9082 58.957 16.5645 58.8867 16.2051C59.4258 16.2754 59.918 16.3145 60.3633 16.3223C60.9414 16.3223 61.2422 15.998 61.2656 15.3496C61.3828 13.4121 61.4531 11.4121 61.4766 9.34961H59.25C59.2422 9.68555 59.2344 10.0176 59.2266 10.3457C59.1875 13.4238 58.2578 15.8535 56.4375 17.6348C56.2188 17.3691 55.9844 17.1035 55.7344 16.8379C57.3672 15.3848 58.2188 13.2129 58.2891 10.3223C58.2969 10.002 58.3047 9.67773 58.3125 9.34961H56.5781V8.45898ZM55.3828 12.502C55.875 13.5645 56.3281 14.6191 56.7422 15.666C56.3984 15.8145 56.1055 15.9434 55.8633 16.0527C55.8086 15.9043 55.7539 15.7559 55.6992 15.6074C54.2109 15.748 52.8555 15.8887 51.6328 16.0293L51.2227 15.0801C51.5664 14.8848 51.8438 14.5684 52.0547 14.1309C52.4375 13.3613 52.8359 12.3848 53.25 11.2012H51.2695V10.334H56.9297V11.2012H54.2344C53.5664 12.8652 52.9883 14.1582 52.5 15.0801C53.3984 15.0137 54.3652 14.9258 55.4004 14.8164C55.1387 14.1523 54.8633 13.502 54.5742 12.8652L55.3828 12.502ZM51.7617 7.04102H56.4609V7.9082H51.7617V7.04102Z" fill="#A30D11"/>
</svg>
