<svg width="78" height="23" viewBox="0 0 78 23" fill="none" xmlns="http://www.w3.org/2000/svg">
<rect width="78" height="23" rx="11.5" fill="#A9C2F1"/>
<path d="M15.7734 7.1582H19.875V16.416H19.1016V15.8184H16.5469V16.6504H15.7734V7.1582ZM19.9453 9.66602C20.7344 8.61133 21.4102 7.38477 21.9727 5.98633L22.8164 6.25586C22.6602 6.61133 22.5039 6.95117 22.3477 7.27539H26.0391V8.06055C25.4961 9.13477 24.8281 10.0586 24.0352 10.832C24.8047 11.3672 25.75 11.7715 26.8711 12.0449C26.6992 12.3652 26.5508 12.6895 26.4258 13.0176C25.2109 12.6074 24.1934 12.0703 23.373 11.4062C22.5371 12.0625 21.5625 12.6465 20.4492 13.1582C20.2617 12.8379 20.082 12.5684 19.9102 12.3496C20.9648 11.9473 21.9062 11.4375 22.7344 10.8203C22.2617 10.3242 21.8262 9.7168 21.4277 8.99805C21.1426 9.47461 20.8555 9.9043 20.5664 10.2871C20.332 10.0137 20.125 9.80664 19.9453 9.66602ZM21 13.0293H25.793V17.5879H24.9258V17.0254H21.8672V17.5879H21V13.0293ZM24.9258 13.8496H21.8672V16.2051H24.9258V13.8496ZM25.0547 8.07227H21.9434L21.873 8.20117C22.3066 9.05664 22.8066 9.75586 23.373 10.2988C23.9941 9.72461 24.5547 8.98242 25.0547 8.07227ZM16.5469 15.0332H17.4375V11.8574H16.5469V15.0332ZM18.2109 15.0332H19.1016V11.8574H18.2109V15.0332ZM19.1016 7.94336H18.2109V11.0723H19.1016V7.94336ZM16.5469 11.0723H17.4375V7.94336H16.5469V11.0723ZM30.4805 17.5293H29.5547V11.4648C28.9883 12.125 28.3633 12.7598 27.6797 13.3691C27.5156 13.0957 27.3281 12.8105 27.1172 12.5137C28.625 11.252 29.8027 9.85352 30.6504 8.31836H27.4453V7.45117H31.0898C31.3125 6.96289 31.5039 6.46289 31.6641 5.95117L32.6367 6.17383C32.4805 6.60742 32.3086 7.0332 32.1211 7.45117H38.7422V8.31836H31.6992C31.457 8.7793 31.1914 9.22852 30.9023 9.66602H37.3242V15.9238C37.3242 16.8926 36.8516 17.377 35.9062 17.377C35.4922 17.3848 34.8633 17.3887 34.0195 17.3887C33.9805 17.123 33.9219 16.8027 33.8438 16.4277C34.5625 16.4824 35.1406 16.5098 35.5781 16.5098C36.1172 16.5098 36.3867 16.2441 36.3867 15.7129V14.8809H30.4805V17.5293ZM30.4805 14.084H36.3867V12.6777H30.4805V14.084ZM36.3867 10.4863H30.4805V11.8809H36.3867V10.4863ZM42.1992 8.2832H43.1719V15.1504C43.1719 15.8613 43.4883 16.2168 44.1211 16.2168H46.6406C47.3125 16.2168 47.6914 15.9355 47.7773 15.373C47.8633 14.8809 47.9375 14.291 48 13.6035C48.3281 13.7363 48.6641 13.8613 49.0078 13.9785C48.8906 14.7988 48.7812 15.4121 48.6797 15.8184C48.4688 16.6934 47.8516 17.1309 46.8281 17.1309H43.8867C42.7617 17.1309 42.1992 16.5449 42.1992 15.373V8.2832ZM48.8086 9.17383C49.4727 10.4316 50.1641 11.8613 50.8828 13.4629L49.9102 13.9434C49.3086 12.4277 48.6484 10.9746 47.9297 9.58398L48.8086 9.17383ZM40.4766 9.53711L41.4141 9.79492C41.0547 11.459 40.625 13.0762 40.125 14.6465L39.1875 14.2832C39.7031 12.8145 40.1328 11.2324 40.4766 9.53711ZM44.7773 5.92773C45.5195 7.16211 46.1484 8.27539 46.6641 9.26758C46.2969 9.45508 45.9844 9.62305 45.7266 9.77148C45.1797 8.56055 44.5898 7.41992 43.957 6.34961L44.7773 5.92773ZM56.5781 8.45898H58.3242C58.3359 7.67383 58.3398 6.86914 58.3359 6.04492H59.2969C59.293 6.86133 59.2832 7.66602 59.2676 8.45898H62.4258C62.3711 11.4121 62.293 13.791 62.1914 15.5957C62.1055 16.6973 61.5938 17.2559 60.6562 17.2715C60.1719 17.2715 59.6445 17.2598 59.0742 17.2363C59.0195 16.9082 58.957 16.5645 58.8867 16.2051C59.4258 16.2754 59.918 16.3145 60.3633 16.3223C60.9414 16.3223 61.2422 15.998 61.2656 15.3496C61.3828 13.4121 61.4531 11.4121 61.4766 9.34961H59.25C59.2422 9.68555 59.2344 10.0176 59.2266 10.3457C59.1875 13.4238 58.2578 15.8535 56.4375 17.6348C56.2188 17.3691 55.9844 17.1035 55.7344 16.8379C57.3672 15.3848 58.2188 13.2129 58.2891 10.3223C58.2969 10.002 58.3047 9.67773 58.3125 9.34961H56.5781V8.45898ZM55.3828 12.502C55.875 13.5645 56.3281 14.6191 56.7422 15.666C56.3984 15.8145 56.1055 15.9434 55.8633 16.0527C55.8086 15.9043 55.7539 15.7559 55.6992 15.6074C54.2109 15.748 52.8555 15.8887 51.6328 16.0293L51.2227 15.0801C51.5664 14.8848 51.8438 14.5684 52.0547 14.1309C52.4375 13.3613 52.8359 12.3848 53.25 11.2012H51.2695V10.334H56.9297V11.2012H54.2344C53.5664 12.8652 52.9883 14.1582 52.5 15.0801C53.3984 15.0137 54.3652 14.9258 55.4004 14.8164C55.1387 14.1523 54.8633 13.502 54.5742 12.8652L55.3828 12.502ZM51.7617 7.04102H56.4609V7.9082H51.7617V7.04102Z" fill="#497AD7"/>
</svg>
