<svg width="78" height="23" viewBox="0 0 78 23" fill="none" xmlns="http://www.w3.org/2000/svg">
<rect width="78" height="23" rx="11.5" fill="#99AAB5"/>
<path d="M15.4453 16.0879L15.3633 15.4434L20.1797 15.1211V14.4121L16.4648 14.6699L16.3828 14.002L20.1797 13.75V13.0762C19.0703 13.1426 18.0039 13.1973 16.9805 13.2402C16.9492 13.0918 16.8984 12.873 16.8281 12.584C19.3672 12.4746 21.9492 12.3145 24.5742 12.1035L24.8086 12.748C23.4961 12.8535 22.2344 12.9453 21.0234 13.0234V13.6973L25.1719 13.416L25.2305 14.0605L21.0234 14.3535V15.0684L26.6016 14.6934L26.6719 15.3496L21.0234 15.7246V15.9004C21.0234 16.3535 21.25 16.5801 21.7031 16.5801H24.75C25.0781 16.5801 25.2812 16.4824 25.3594 16.2871C25.4219 16.123 25.4805 15.873 25.5352 15.5371C25.8242 15.6777 26.0977 15.7793 26.3555 15.8418C26.2227 16.4824 26.0547 16.8848 25.8516 17.0488C25.6562 17.2285 25.2656 17.3184 24.6797 17.3184H21.3633C20.5742 17.3184 20.1797 16.9082 20.1797 16.0879V15.7773L15.4453 16.0879ZM17.1211 8.41211H24.8789V10.6504H24.0352V10.4277H17.9648V10.6504H17.1211V8.41211ZM15.6562 11.0723H26.3672V12.877H25.5117V11.7754H16.5117V12.877H15.6562V11.0723ZM15.3984 7.09961H20.6543C20.502 6.81836 20.3633 6.56445 20.2383 6.33789L21.082 5.93945C21.2539 6.25586 21.4531 6.64258 21.6797 7.09961H26.625V7.80273H15.3984V7.09961ZM24.0352 9.04492H17.9648V9.79492H24.0352V9.04492ZM27.375 10.6035H31.9688C32.1328 9.79102 32.2305 8.88477 32.2617 7.88477H28.2656V6.9707H37.7812V7.88477H33.2461C33.1914 8.88477 33.0898 9.79102 32.9414 10.6035H38.6719V11.5176H32.7422C32.1484 14.1582 30.5156 16.2051 27.8438 17.6582C27.6719 17.3926 27.4609 17.1152 27.2109 16.8262C29.5391 15.6621 31.0547 13.8926 31.7578 11.5176H27.375V10.6035ZM33.375 12.3613H34.3242V15.4434C34.3242 16.0605 34.6094 16.3691 35.1797 16.3691H36.7852C37.3164 16.3691 37.6172 16.1387 37.6875 15.6777C37.75 15.2324 37.7969 14.6543 37.8281 13.9434C38.125 14.0527 38.4531 14.166 38.8125 14.2832C38.7344 15.0566 38.6641 15.6387 38.6016 16.0293C38.5 16.8105 37.9453 17.2012 36.9375 17.2012H34.9102C33.8867 17.2012 33.375 16.6621 33.375 15.584V12.3613ZM42.9258 7.65039H46.3477V6.0332H47.2617V7.65039H50.5664L50.4492 9.90039C50.1914 9.86914 49.8984 9.84961 49.5703 9.8418L49.6641 8.4707H47.2617V10.6504H49.8516V11.4355C49.4453 12.8418 48.7363 14.0625 47.7246 15.0977C48.5762 15.7617 49.6406 16.2793 50.918 16.6504C50.5508 17.0176 50.2852 17.3105 50.1211 17.5293C48.8867 17.0645 47.8496 16.4707 47.0098 15.748C46.1074 16.498 45.0156 17.1348 43.7344 17.6582C43.5859 17.416 43.3711 17.1504 43.0898 16.8613C44.3789 16.3809 45.4648 15.7949 46.3477 15.1035C45.4297 14.0996 44.8242 12.8887 44.5312 11.4707H43.8398C43.8477 14.0957 43.1797 16.1348 41.8359 17.5879C41.625 17.3066 41.4141 17.0566 41.2031 16.8379C42.3516 15.6035 42.9258 13.8535 42.9258 11.5879V7.65039ZM48.8789 11.4707H45.4043C45.6934 12.6543 46.2383 13.6602 47.0391 14.4883C47.9141 13.625 48.5273 12.6191 48.8789 11.4707ZM43.8398 10.6504H46.3477V8.4707H43.8398V10.6504ZM39.4805 17.1426C39.9336 15.7988 40.3359 14.2871 40.6875 12.6074C41.0312 12.7559 41.3477 12.877 41.6367 12.9707C41.1523 14.8691 40.7773 16.3652 40.5117 17.459L39.4805 17.1426ZM39.6094 6.85352L40.2188 6.23242C40.7344 6.62305 41.4062 7.17383 42.2344 7.88477C41.9688 8.14258 41.7344 8.37305 41.5312 8.57617C40.7266 7.81836 40.0859 7.24414 39.6094 6.85352ZM39.1523 9.91211L39.75 9.24414C40.4219 9.70508 41.0938 10.2051 41.7656 10.7441C41.5078 11.0176 41.2812 11.2715 41.0859 11.5059C40.3203 10.8262 39.6758 10.2949 39.1523 9.91211ZM55.5703 8.78711H57.9258V7.94336H58.6523V8.78711H61.0312V9.44336H58.6523V10.3223H60.7852V14.0254H60.082V13.6973H58.6523V14.5879L59.0039 14.166C59.8555 14.7129 60.5234 15.1895 61.0078 15.5957L60.5156 16.1348C59.9375 15.6191 59.3164 15.1426 58.6523 14.7051V17.1777H57.9258V14.166C57.2695 15.2051 56.5547 16.0098 55.7812 16.5801C55.6328 16.3691 55.457 16.1543 55.2539 15.9355C56.0977 15.4355 56.8672 14.6895 57.5625 13.6973H56.5078V14.0254H55.8047V10.3223H57.9258V9.44336H55.5703V8.78711ZM57.1289 7.54492V6.77148H62.3555V16.0996C62.3555 17.0215 61.8867 17.4824 60.9492 17.4824C60.5742 17.4824 60.2148 17.4746 59.8711 17.459C59.8164 17.1152 59.7578 16.8301 59.6953 16.6035C60.0547 16.627 60.4258 16.6465 60.8086 16.6621C61.293 16.6855 61.5352 16.4434 61.5352 15.9355V7.54492H57.1289ZM54.2344 8.40039H55.0547V17.4824H54.2344V8.40039ZM52.5586 12.6309C52.8086 12.7559 53.0898 12.873 53.4023 12.9824C52.9727 14.6934 52.6211 16.1895 52.3477 17.4707L51.4336 17.1543C51.8711 15.748 52.2461 14.2402 52.5586 12.6309ZM60.082 10.9316H58.6523V13.0879H60.082V10.9316ZM56.5078 13.0879H57.9258V10.9316H56.5078V13.0879ZM51.7617 9.26758C52.3477 9.73633 52.9414 10.2402 53.543 10.7793C53.2773 11.0527 53.0625 11.2832 52.8984 11.4707C52.2734 10.8535 51.6953 10.3301 51.1641 9.90039L51.7617 9.26758ZM52.3242 6.2793C52.9727 6.80273 53.5586 7.32227 54.082 7.83789C53.8242 8.07227 53.6016 8.29492 53.4141 8.50586C52.7344 7.78711 52.1797 7.24023 51.75 6.86523L52.3242 6.2793ZM54.4453 6.57227L55.0664 6.08008C55.6445 6.6582 56.1367 7.18555 56.543 7.66211L55.8398 8.20117C55.4805 7.7168 55.0156 7.17383 54.4453 6.57227ZM59.8594 11.541C59.6328 12.1113 59.4531 12.5137 59.3203 12.748L58.8047 12.5254C58.9922 12.1504 59.1641 11.7559 59.3203 11.3418L59.8594 11.541ZM56.7188 11.5293L57.1992 11.3418C57.4023 11.7402 57.5781 12.1348 57.7266 12.5254L57.1992 12.748C57.082 12.3965 56.9219 11.9902 56.7188 11.5293Z" fill="#131414"/>
</svg>
