<svg width="37" height="36" viewBox="0 0 37 36" fill="none" xmlns="http://www.w3.org/2000/svg">
<path d="M32.8652 27L22.9009 18M14.3295 18L4.36529 27M3.61523 10.5L15.8626 19.0732C16.8544 19.7674 17.3502 20.1145 17.8896 20.249C18.3661 20.3677 18.8644 20.3677 19.3408 20.249C19.8802 20.1145 20.3761 19.7674 21.3679 19.0732L33.6152 10.5M10.8152 30H26.4152C28.9355 30 30.1956 30 31.1582 29.5095C32.0049 29.0781 32.6933 28.3897 33.1248 27.543C33.6152 26.5804 33.6152 25.3202 33.6152 22.8V13.2C33.6152 10.6798 33.6152 9.41965 33.1248 8.45704C32.6933 7.61031 32.0049 6.9219 31.1582 6.49047C30.1956 6 28.9355 6 26.4152 6H10.8152C8.295 6 7.03488 6 6.07228 6.49047C5.22555 6.9219 4.53714 7.61031 4.10571 8.45704C3.61523 9.41965 3.61523 10.6798 3.61523 13.2V22.8C3.61523 25.3202 3.61523 26.5804 4.10571 27.543C4.53714 28.3897 5.22555 29.0781 6.07228 29.5095C7.03488 30 8.295 30 10.8152 30Z" stroke="black" stroke-width="2" stroke-linecap="round" stroke-linejoin="round"/>
</svg>
