<svg width="50" height="50" viewBox="0 0 50 50" fill="none" xmlns="http://www.w3.org/2000/svg">
<g id="pencil-01">
<path id="Icon" d="M5.20825 44.7916L16.7692 40.3451C17.5087 40.0607 17.8784 39.9185 18.2243 39.7328C18.5316 39.5679 18.8245 39.3775 19.1 39.1637C19.4102 38.923 19.6903 38.6429 20.2505 38.0827L43.75 14.5833C46.0512 12.2821 46.0512 8.55113 43.75 6.24994C41.4488 3.94875 37.7178 3.94875 35.4166 6.24993L11.9172 29.7494C11.357 30.3096 11.0768 30.5897 10.8362 30.8999C10.6224 31.1754 10.432 31.4683 10.2671 31.7755C10.0814 32.1214 9.93919 32.4912 9.65478 33.2306L5.20825 44.7916ZM5.20825 44.7916L9.496 33.6436C9.80283 32.8459 9.95624 32.447 10.2194 32.2643C10.4493 32.1046 10.7339 32.0442 11.0089 32.0967C11.3235 32.1568 11.6257 32.459 12.2301 33.0634L16.9365 37.7698C17.5409 38.3742 17.8431 38.6764 17.9032 38.991C17.9557 39.266 17.8953 39.5506 17.7356 39.7805C17.5529 40.0437 17.1541 40.1971 16.3563 40.5039L5.20825 44.7916Z" stroke="#3472D7" stroke-width="2" stroke-linecap="round" stroke-linejoin="round"/>
</g>
</svg>
