<svg width="37" height="36" viewBox="0 0 37 36" fill="none" xmlns="http://www.w3.org/2000/svg">
<path d="M13.0704 13.28C14.1144 15.4545 15.5376 17.4924 17.34 19.2948C19.1423 21.0972 21.1803 22.5203 23.3547 23.5643C23.5418 23.6541 23.6353 23.699 23.7536 23.7335C24.1741 23.8561 24.6905 23.7681 25.0467 23.513C25.1469 23.4413 25.2326 23.3556 25.4041 23.1841C25.9285 22.6597 26.1907 22.3975 26.4544 22.226C27.4487 21.5795 28.7306 21.5795 29.7249 22.226C29.9886 22.3975 30.2508 22.6597 30.7752 23.1841L31.0675 23.4764C31.8647 24.2735 32.2632 24.6721 32.4798 25.1002C32.9104 25.9515 32.9104 26.9569 32.4798 27.8083C32.2632 28.2364 31.8647 28.6349 31.0675 29.4321L30.8311 29.6686C30.0366 30.463 29.6394 30.8602 29.0994 31.1636C28.5001 31.5002 27.5694 31.7423 26.882 31.7402C26.2626 31.7384 25.8393 31.6182 24.9926 31.3779C20.4425 30.0864 16.149 27.6497 12.567 24.0678C8.98502 20.4858 6.54831 16.1922 5.25685 11.6422C5.01654 10.7955 4.89639 10.3721 4.89454 9.75273C4.8925 9.0654 5.13454 8.13466 5.47117 7.5354C5.77454 6.99535 6.17176 6.59813 6.9662 5.8037L7.20265 5.56725C7.99981 4.77008 8.39839 4.3715 8.82646 4.15499C9.67781 3.72438 10.6832 3.72438 11.5345 4.15498C11.9626 4.3715 12.3612 4.77008 13.1584 5.56725L13.4507 5.85955C13.9751 6.38396 14.2373 6.64617 14.4087 6.90983C15.0552 7.90417 15.0552 9.18604 14.4087 10.1804C14.2373 10.444 13.9751 10.7062 13.4507 11.2307C13.2792 11.4021 13.1935 11.4879 13.1217 11.5881C12.8667 11.9442 12.7786 12.4606 12.9012 12.8811C12.9357 12.9995 12.9806 13.093 13.0704 13.28Z" stroke="black" stroke-width="2" stroke-linecap="round" stroke-linejoin="round"/>
</svg>
