<svg width="46" height="37" viewBox="0 0 46 37" fill="none" xmlns="http://www.w3.org/2000/svg">
<g id="Hicon / Outline / Search 2" clip-path="url(#clip0_22_650)">
<g id="Search 2">
<g id="Vector">
<path fill-rule="evenodd" clip-rule="evenodd" d="M20.8896 0.91708C10.7994 0.91708 2.61963 7.4217 2.61963 15.4455C2.61963 23.4694 10.7994 29.974 20.8896 29.974C30.9798 29.974 39.1595 23.4694 39.1595 15.4455C39.1595 7.4217 30.9798 0.91708 20.8896 0.91708ZM5.43039 15.4455C5.43039 8.65613 12.3517 3.15223 20.8896 3.15223C29.4274 3.15223 36.3487 8.65613 36.3487 15.4455C36.3487 22.235 29.4274 27.7389 20.8896 27.7389C12.3517 27.7389 5.43039 22.235 5.43039 15.4455Z" fill="#2D264B"/>
<path d="M36.8742 26.5762C36.3253 26.1398 35.4355 26.1398 34.8866 26.5762C34.3378 27.0127 34.3378 27.7203 34.8866 28.1567L42.3818 34.117C42.9306 34.5535 43.8205 34.5535 44.3693 34.117C44.9181 33.6806 44.9181 32.973 44.3693 32.5366L36.8742 26.5762Z" fill="#2D264B"/>
</g>
</g>
</g>
<defs>
<clipPath id="clip0_22_650">
<rect width="44.9721" height="35.7624" fill="white" transform="translate(0.277344 0.544556)"/>
</clipPath>
</defs>
</svg>
