<svg width="30" height="31" viewBox="0 0 30 31" fill="none" xmlns="http://www.w3.org/2000/svg">
<g id="Setting">
<g id="Iconly/Bold/Setting">
<g id="Setting_2">
<path id="Vector" d="M16.1463 3.29434C17.0686 3.29434 17.9037 3.80659 18.3649 4.56278C18.5893 4.92867 18.7388 5.37994 18.7014 5.85561C18.6765 6.2215 18.7887 6.5874 18.9881 6.9289C19.6238 7.9656 21.0323 8.35589 22.1291 7.77046C23.3631 7.06306 24.9211 7.48994 25.6316 8.69739L26.4667 10.1366C27.1896 11.344 26.7908 12.893 25.5443 13.5882C24.4849 14.2102 24.1109 15.5884 24.7466 16.6373C24.9461 16.9666 25.1704 17.2471 25.5194 17.4179C25.9557 17.6496 26.2922 18.0155 26.529 18.3814C26.9902 19.1376 26.9528 20.0645 26.5041 20.8817L25.6316 22.3453C25.1704 23.1258 24.3104 23.6137 23.4254 23.6137C22.9892 23.6137 22.503 23.4917 22.1042 23.2478C21.7801 23.0405 21.4062 22.9673 21.0073 22.9673C19.7734 22.9673 18.7388 23.9796 18.7014 25.1871C18.7014 26.5897 17.5547 27.6873 16.1213 27.6873H14.4262C12.9803 27.6873 11.8336 26.5897 11.8336 25.1871C11.8087 23.9796 10.7741 22.9673 9.54017 22.9673C9.12885 22.9673 8.75492 23.0405 8.44331 23.2478C8.04446 23.4917 7.54588 23.6137 7.1221 23.6137C6.22467 23.6137 5.36463 23.1258 4.90345 22.3453L4.04342 20.8817C3.58224 20.0889 3.55731 19.1376 4.01849 18.3814C4.21792 18.0155 4.59185 17.6496 5.01563 17.4179C5.36463 17.2471 5.58899 16.9666 5.80088 16.6373C6.4241 15.5884 6.05017 14.2102 4.9907 13.5882C3.75674 12.893 3.35788 11.344 4.06834 10.1366L4.90345 8.69739C5.62638 7.48994 7.17196 7.06306 8.41839 7.77046C9.50278 8.35589 10.9112 7.9656 11.5469 6.9289C11.7464 6.5874 11.8585 6.2215 11.8336 5.85561C11.8087 5.37994 11.9458 4.92867 12.1826 4.56278C12.6438 3.80659 13.4789 3.31874 14.3888 3.29434H16.1463ZM15.2862 12.0514C13.3293 12.0514 11.7464 13.5882 11.7464 15.503C11.7464 17.4179 13.3293 18.9425 15.2862 18.9425C17.2431 18.9425 18.7887 17.4179 18.7887 15.503C18.7887 13.5882 17.2431 12.0514 15.2862 12.0514Z" fill="#5D7285"/>
</g>
</g>
</g>
</svg>
