<svg width="50" height="50" viewBox="0 0 50 50" fill="none" xmlns="http://www.w3.org/2000/svg">
<g id="terminal-browser">
<path id="Icon" d="M45.8334 18.75H4.16669M12.5 36.4583L17.7084 31.25L12.5 26.0417M22.9167 36.4583L31.25 36.4583M4.16669 16.25L4.16669 33.75C4.16669 37.2503 4.16669 39.0005 4.8479 40.3374C5.4471 41.5134 6.40323 42.4696 7.57925 43.0688C8.91619 43.75 10.6664 43.75 14.1667 43.75H35.8334C39.3337 43.75 41.0838 43.75 42.4208 43.0688C43.5968 42.4696 44.5529 41.5135 45.1521 40.3374C45.8334 39.0005 45.8334 37.2503 45.8334 33.75V16.25C45.8334 12.7497 45.8334 10.9995 45.1521 9.66256C44.5529 8.48655 43.5968 7.53042 42.4208 6.93121C41.0838 6.25 39.3337 6.25 35.8334 6.25L14.1667 6.25C10.6664 6.25 8.9162 6.25 7.57925 6.93121C6.40323 7.53042 5.44711 8.48655 4.8479 9.66256C4.16669 10.9995 4.16669 12.7497 4.16669 16.25Z" stroke="#3472D7" stroke-width="2" stroke-linecap="round" stroke-linejoin="round"/>
</g>
</svg>
