<svg width="50" height="50" viewBox="0 0 50 50" fill="none" xmlns="http://www.w3.org/2000/svg">
<g id="trash-01">
<path id="Icon" d="M33.3333 12.5V10.8333C33.3333 8.49974 33.3333 7.33296 32.8792 6.44167C32.4797 5.65766 31.8423 5.02024 31.0583 4.62077C30.167 4.16663 29.0002 4.16663 26.6667 4.16663H23.3333C20.9998 4.16663 19.833 4.16663 18.9417 4.62077C18.1577 5.02024 17.5203 5.65766 17.1208 6.44167C16.6667 7.33296 16.6667 8.49974 16.6667 10.8333V12.5M20.8333 23.9583V34.375M29.1667 23.9583V34.375M6.25 12.5H43.75M39.5833 12.5V35.8333C39.5833 39.3336 39.5833 41.0838 38.9021 42.4207C38.3029 43.5967 37.3468 44.5529 36.1708 45.1521C34.8338 45.8333 33.0837 45.8333 29.5833 45.8333H20.4167C16.9163 45.8333 15.1662 45.8333 13.8292 45.1521C12.6532 44.5529 11.6971 43.5967 11.0979 42.4207C10.4167 41.0838 10.4167 39.3336 10.4167 35.8333V12.5" stroke="#FB4128" stroke-width="2" stroke-linecap="round" stroke-linejoin="round"/>
</g>
</svg>
