<svg width="37" height="36" viewBox="0 0 37 36" fill="none" xmlns="http://www.w3.org/2000/svg">
<path d="M30.25 31.5C30.25 29.4067 30.25 28.36 29.9916 27.5083C29.4099 25.5907 27.9093 24.0901 25.9917 23.5084C25.14 23.25 24.0933 23.25 22 23.25H14.5C12.4067 23.25 11.36 23.25 10.5083 23.5084C8.59068 24.0901 7.09006 25.5907 6.50836 27.5083C6.25 28.36 6.25 29.4067 6.25 31.5M25 11.25C25 14.9779 21.9779 18 18.25 18C14.5221 18 11.5 14.9779 11.5 11.25C11.5 7.52208 14.5221 4.5 18.25 4.5C21.9779 4.5 25 7.52208 25 11.25Z" stroke="black" stroke-width="2" stroke-linecap="round" stroke-linejoin="round"/>
</svg>
